<svg width="69" height="80" viewBox="0 0 69 80" fill="none" xmlns="http://www.w3.org/2000/svg">
<path d="M68.3327 70.625C68.3327 72.3509 66.9286 73.75 65.1965 73.75H62.0602V76.875C62.0602 78.6009 60.6561 80 58.9239 80C57.1918 80 55.7877 78.6009 55.7877 76.875V73.75H52.6514C50.9192 73.75 49.5151 72.3509 49.5151 70.625C49.5151 68.8991 50.9192 67.5 52.6514 67.5H55.7877V64.375C55.7877 62.6491 57.1918 61.25 58.9239 61.25C60.6561 61.25 62.0602 62.6491 62.0602 64.375V67.5H65.1965C66.9286 67.5 68.3327 68.8991 68.3327 70.625ZM68.3327 21.875V51.875C68.3327 53.6009 66.9286 55 65.1965 55C63.4643 55 62.0602 53.6009 62.0602 51.875V25H55.7877V34.375C55.7877 36.1009 54.3836 37.5 52.6514 37.5C50.9192 37.5 49.5151 36.1009 49.5151 34.375V25H19.407V34.375C19.407 36.1009 18.0029 37.5 16.2707 37.5C14.5385 37.5 13.1344 36.1009 13.1344 34.375V25H6.86189V73.75H40.1063C41.8385 73.75 43.2426 75.1491 43.2426 76.875C43.2426 78.6009 41.8385 80 40.1063 80H3.72562C1.99346 80 0.589355 78.6009 0.589355 76.875V21.875C0.589355 20.1491 1.99346 18.75 3.72562 18.75H13.2828C14.5287 8.20672 23.5504 0 34.4611 0C45.3717 0 54.3934 8.20672 55.6393 18.75H65.1965C66.9286 18.75 68.3327 20.1491 68.3327 21.875ZM49.3049 18.75C48.1068 11.6648 41.907 6.25 34.4611 6.25C27.0151 6.25 20.8153 11.6648 19.6173 18.75H49.3049Z" fill="#D2D2D2"/>
</svg>
