<svg width="24" height="24" viewBox="0 0 24 24" fill="none" xmlns="http://www.w3.org/2000/svg">
<path d="M20.25 11.25H5.2905L11.0175 5.793C11.3171 5.50725 11.3287 5.0325 11.043 4.7325C10.7572 4.43325 10.2829 4.42087 9.9825 4.707L3.44063 10.9414C3.15638 11.2256 3 11.6017 3 12C3 12.3982 3.15638 12.7736 3.45375 13.0717L9.9825 19.293C10.1276 19.4314 10.314 19.5 10.5 19.5C10.698 19.5 10.8956 19.422 11.043 19.2675C11.3287 18.9675 11.3171 18.4931 11.0175 18.207L5.26462 12.75H20.25C20.664 12.75 21 12.414 21 12C21 11.586 20.664 11.25 20.25 11.25Z" fill="#273142" stroke="#273142" stroke-width="0.2"/>
</svg>
