<svg width="61" height="60" viewBox="0 0 61 60" fill="none" xmlns="http://www.w3.org/2000/svg">
<g opacity="0.5" clip-path="url(#clip0_360_19835)">
<path d="M40.1551 25.2506L30.6082 30.7764L21.0613 25.2506L30.6082 19.7249L40.1551 25.2506ZM32.0107 44.2635L41.5579 38.7375V27.686L32.0107 33.2119V44.2635ZM19.6586 38.7376L29.2059 44.2636V33.212L19.6586 27.6861V38.7376ZM60.4213 30C60.4213 46.5421 46.9993 60 30.5013 60C14.0033 60 0.581299 46.542 0.581299 30C0.581299 13.4579 14.0033 0 30.5013 0C46.9993 0 60.4213 13.4579 60.4213 30ZM48.5406 20.3059C48.4735 19.8882 48.2225 19.5231 47.8571 19.3117L35.5048 12.1623C34.9291 11.8289 34.199 11.947 33.7566 12.4446L30.5911 16.0068L27.2306 12.3483C26.786 11.8643 26.066 11.754 25.4978 12.0831L13.1454 19.2326C12.7765 19.4461 12.5244 19.8161 12.4601 20.2383C12.3958 20.6605 12.5264 21.0891 12.815 21.4032L16.8535 25.7996V39.5496C16.8535 40.052 17.1209 40.5163 17.5547 40.7675L29.907 47.917C30.1239 48.0425 30.3661 48.1054 30.6082 48.1054C30.8504 48.1054 31.0925 48.0425 31.3095 47.917L43.6617 40.7675C44.0956 40.5163 44.3629 40.0521 44.3629 39.5496V25.7863L48.2031 21.4651C48.4837 21.1493 48.6077 20.7236 48.5406 20.3059ZM25.9278 15.0817L16.0653 20.79L18.5271 23.47L28.3895 17.7616L25.9278 15.0817ZM32.8016 17.747L42.6728 23.4605L44.9626 20.8839L35.0913 15.1704L32.8016 17.747Z" fill="#8D909B"/>
</g>
<defs>
<clipPath id="clip0_360_19835">
<rect width="59.84" height="60" fill="white" transform="translate(0.581299)"/>
</clipPath>
</defs>
</svg>
