<svg width="25" height="24" viewBox="0 0 25 24" fill="none" xmlns="http://www.w3.org/2000/svg">
<path fill-rule="evenodd" clip-rule="evenodd" d="M8.1001 19.6251C8.1001 18.7506 8.80898 18.0417 9.68343 18.0417C10.5579 18.0417 11.2668 18.7506 11.2668 19.6251C11.2668 20.4995 10.5579 21.2084 9.68343 21.2084C8.80898 21.2084 8.1001 20.4995 8.1001 19.6251Z" fill="#F5921C"/>
<path fill-rule="evenodd" clip-rule="evenodd" d="M16.811 19.6251C16.811 18.7506 17.5199 18.0417 18.3944 18.0417C19.2688 18.0417 19.9777 18.7506 19.9777 19.6251C19.9777 20.4995 19.2688 21.2084 18.3944 21.2084C17.5199 21.2084 16.811 20.4995 16.811 19.6251Z" fill="#F5921C"/>
<path d="M7.56006 8H20.5601L19.0601 15.5H8.56006L7.56006 8Z" fill="#F5921C"/>
<path fill-rule="evenodd" clip-rule="evenodd" d="M2.56006 3.79167C2.56006 3.35444 2.9145 3 3.35172 3H6.51839C6.89572 3 7.22061 3.2663 7.29466 3.6363L7.95956 6.95833H20.7684C21.0043 6.95833 21.228 7.06357 21.3784 7.24535C21.5288 7.42714 21.5902 7.66654 21.546 7.8983L20.2782 14.5463C20.1696 15.093 19.8722 15.5841 19.438 15.9337C19.006 16.2814 18.4659 16.467 17.9115 16.4583H10.2302C9.67585 16.467 9.1358 16.2814 8.70377 15.9337C8.26975 15.5843 7.97239 15.0934 7.86369 14.547L6.54118 7.93937C6.53582 7.91751 6.53136 7.8953 6.52785 7.87277L5.86947 4.58333H3.35172C2.9145 4.58333 2.56006 4.22889 2.56006 3.79167ZM8.27647 8.54166L9.41656 14.2378C9.45275 14.4201 9.55189 14.5838 9.69662 14.7003C9.84136 14.8168 10.0225 14.8787 10.2082 14.8751L10.2234 14.875H17.9184L17.9336 14.8751C18.1193 14.8787 18.3004 14.8168 18.4452 14.7003C18.5892 14.5843 18.6881 14.4216 18.7247 14.2404L19.8115 8.54166H8.27647Z" fill="#F5921C"/>
</svg>
