<svg width="21" height="20" viewBox="0 0 21 20" fill="none" xmlns="http://www.w3.org/2000/svg">
<path fill-rule="evenodd" clip-rule="evenodd" d="M14.2668 1.66675H16.9817C18.1049 1.66675 19.0161 2.58833 19.0161 3.72523V6.47017C19.0161 7.60621 18.1049 8.52865 16.9817 8.52865H14.2668C13.1427 8.52865 12.2314 7.60621 12.2314 6.47017V3.72523C12.2314 2.58833 13.1427 1.66675 14.2668 1.66675Z" stroke="#8D909B" stroke-width="1.5" stroke-linecap="round" stroke-linejoin="round"/>
<path fill-rule="evenodd" clip-rule="evenodd" d="M4.42888 1.66675H7.14293C8.26705 1.66675 9.17826 2.58833 9.17826 3.72523V6.47017C9.17826 7.60621 8.26705 8.52865 7.14293 8.52865H4.42888C3.30477 8.52865 2.39355 7.60621 2.39355 6.47017V3.72523C2.39355 2.58833 3.30477 1.66675 4.42888 1.66675Z" stroke="#8D909B" stroke-width="1.5" stroke-linecap="round" stroke-linejoin="round"/>
<path fill-rule="evenodd" clip-rule="evenodd" d="M4.42888 11.4714H7.14293C8.26705 11.4714 9.17826 12.393 9.17826 13.5308V16.2749C9.17826 17.4118 8.26705 18.3333 7.14293 18.3333H4.42888C3.30477 18.3333 2.39355 17.4118 2.39355 16.2749V13.5308C2.39355 12.393 3.30477 11.4714 4.42888 11.4714Z" stroke="#8D909B" stroke-width="1.5" stroke-linecap="round" stroke-linejoin="round"/>
<path fill-rule="evenodd" clip-rule="evenodd" d="M14.2668 11.4714H16.9817C18.1049 11.4714 19.0161 12.393 19.0161 13.5308V16.2749C19.0161 17.4118 18.1049 18.3333 16.9817 18.3333H14.2668C13.1427 18.3333 12.2314 17.4118 12.2314 16.2749V13.5308C12.2314 12.393 13.1427 11.4714 14.2668 11.4714Z" stroke="#8D909B" stroke-width="1.5" stroke-linecap="round" stroke-linejoin="round"/>
</svg>
