<svg width="23" height="22" viewBox="0 0 23 22" fill="none" xmlns="http://www.w3.org/2000/svg">
<path fill-rule="evenodd" clip-rule="evenodd" d="M7.09961 18.6251C7.09961 17.7506 7.80849 17.0417 8.68294 17.0417C9.55739 17.0417 10.2663 17.7506 10.2663 18.6251C10.2663 19.4995 9.55739 20.2084 8.68294 20.2084C7.80849 20.2084 7.09961 19.4995 7.09961 18.6251Z" fill="#8D909B"/>
<path fill-rule="evenodd" clip-rule="evenodd" d="M15.8105 18.6251C15.8105 17.7506 16.5194 17.0417 17.3939 17.0417C18.2683 17.0417 18.9772 17.7506 18.9772 18.6251C18.9772 19.4995 18.2683 20.2084 17.3939 20.2084C16.5194 20.2084 15.8105 19.4995 15.8105 18.6251Z" fill="#8D909B"/>
<path fill-rule="evenodd" clip-rule="evenodd" d="M1.55957 2.79167C1.55957 2.35444 1.91401 2 2.35124 2H5.5179C5.89523 2 6.22012 2.2663 6.29417 2.6363L6.95908 5.95833H19.7679C20.0038 5.95833 20.2275 6.06357 20.3779 6.24535C20.5283 6.42714 20.5897 6.66654 20.5455 6.8983L19.2778 13.5463C19.1692 14.093 18.8717 14.5841 18.4375 14.9337C18.0055 15.2814 17.4654 15.467 16.9111 15.4583H9.22974C8.67536 15.467 8.13531 15.2814 7.70328 14.9337C7.26926 14.5843 6.9719 14.0934 6.8632 13.547C6.86316 13.5468 6.86325 13.5472 6.8632 13.547L5.54069 6.93937C5.53533 6.91751 5.53087 6.8953 5.52736 6.87277L4.86899 3.58333H2.35124C1.91401 3.58333 1.55957 3.22889 1.55957 2.79167ZM7.27598 7.54166L8.41607 13.2378C8.45226 13.4201 8.5514 13.5838 8.69614 13.7003C8.84087 13.8168 9.02197 13.8787 9.20773 13.8751L9.2229 13.875H16.9179L16.9331 13.8751C17.1188 13.8787 17.2999 13.8168 17.4447 13.7003C17.5887 13.5843 17.6876 13.4216 17.7242 13.2404L18.811 7.54166H7.27598Z" fill="#8D909B"/>
</svg>
