<svg width="25" height="24" viewBox="0 0 25 24" fill="none" xmlns="http://www.w3.org/2000/svg">
<path d="M12.3278 2L14.567 9.25532H21.813L15.9508 13.7394L18.19 20.9947L12.3278 16.5106L6.46565 20.9947L8.7048 13.7394L2.84262 9.25532H10.0887L12.3278 2Z" fill="#F5921C"/>
<path fill-rule="evenodd" clip-rule="evenodd" d="M11.3778 2.66077C11.7064 1.77974 12.9493 1.77974 13.2778 2.66077L15.3678 8.26514L21.3295 8.52634C22.2667 8.5674 22.6508 9.7526 21.9167 10.3382L17.2467 14.0631L18.8412 19.8288C19.0918 20.7353 18.0863 21.4677 17.3041 20.9486L12.3278 17.6464L7.35158 20.9486C6.5693 21.4677 5.56379 20.7353 5.81446 19.8288L7.40897 14.0631L2.73898 10.3382C2.00483 9.7526 2.3889 8.5674 3.3261 8.52634L9.28781 8.26514L11.3778 2.66077ZM12.3278 4.46874L10.5952 9.11461C10.4527 9.49683 10.0961 9.7566 9.68953 9.77442L4.74743 9.99094L8.61874 13.0788C8.93723 13.3328 9.07344 13.7531 8.96469 14.1464L7.64288 18.9261L11.7681 16.1886C12.1074 15.9634 12.5482 15.9634 12.8876 16.1886L17.0128 18.9261L15.6909 14.1464C15.5822 13.7531 15.7184 13.3328 16.0369 13.0788L19.9082 9.99094L14.9661 9.77442C14.5595 9.7566 14.2029 9.49683 14.0604 9.11461L12.3278 4.46874Z" fill="#F5921C"/>
</svg>
