<svg width="25" height="24" viewBox="0 0 25 24" fill="none" xmlns="http://www.w3.org/2000/svg">
<path fill-rule="evenodd" clip-rule="evenodd" d="M11.3788 2.66077C11.7074 1.77974 12.9502 1.77974 13.2788 2.66077L15.3688 8.26514L21.3305 8.52634C22.2677 8.5674 22.6518 9.7526 21.9176 10.3382L17.2476 14.0631L18.8422 19.8288C19.0928 20.7353 18.0873 21.4677 17.305 20.9486L12.3288 17.6464L7.35256 20.9486C6.57027 21.4677 5.56477 20.7353 5.81544 19.8288L7.40995 14.0631L2.73995 10.3382C2.00581 9.7526 2.38988 8.5674 3.32708 8.52634L9.28878 8.26514L11.3788 2.66077ZM12.3288 4.46874L10.5962 9.11461C10.4537 9.49683 10.0971 9.7566 9.69051 9.77442L4.74841 9.99094L8.61972 13.0788C8.93821 13.3328 9.07442 13.7531 8.96567 14.1464L7.64386 18.9261L11.769 16.1886C12.1084 15.9634 12.5492 15.9634 12.8886 16.1886L17.0137 18.9261L15.6919 14.1464C15.5832 13.7531 15.7194 13.3328 16.0379 13.0788L19.9092 9.99094L14.9671 9.77442C14.5605 9.7566 14.2039 9.49683 14.0614 9.11461L12.3288 4.46874Z" fill="#8D909B"/>
</svg>
