<svg width="23" height="22" viewBox="0 0 23 22" fill="none" xmlns="http://www.w3.org/2000/svg">
<path d="M9.27758 19.0404V16.2292C9.27756 15.5142 9.85894 14.9332 10.5792 14.9284H13.2178C13.9415 14.9284 14.5282 15.5108 14.5282 16.2292V16.2292V19.0491C14.5281 19.6562 15.0162 20.1524 15.6276 20.1666H17.3866C19.1401 20.1666 20.5616 18.7555 20.5616 17.0149V17.0149V9.01793C20.5523 8.33318 20.2284 7.69016 19.6821 7.27187L13.6663 2.46144C12.6124 1.62385 11.1142 1.62385 10.0603 2.46144L4.07091 7.2806C3.52259 7.69719 3.19816 8.34128 3.19141 9.02666V17.0149C3.19141 18.7555 4.61291 20.1666 6.36642 20.1666H8.12543C8.75203 20.1666 9.25999 19.6624 9.25999 19.0404V19.0404" stroke="#8D909B" stroke-width="1.6" stroke-linecap="round" stroke-linejoin="round"/>
</svg>
