<svg width="25" height="24" viewBox="0 0 25 24" fill="none" xmlns="http://www.w3.org/2000/svg">
<path fill-rule="evenodd" clip-rule="evenodd" d="M10.2776 20.0404V17.2292C10.2776 16.5142 10.8589 15.9332 11.5792 15.9284H14.2178C14.9415 15.9284 15.5282 16.5108 15.5282 17.2292V17.2292V20.0491C15.5281 20.6562 16.0162 21.1524 16.6276 21.1666H18.3866C20.1401 21.1666 21.5616 19.7555 21.5616 18.0149V18.0149V10.0179C21.5523 9.33318 21.2284 8.69016 20.6821 8.27187L14.6663 3.46144C13.6124 2.62385 12.1142 2.62385 11.0603 3.46144L5.07091 8.2806C4.52259 8.69719 4.19816 9.34128 4.19141 10.0267V18.0149C4.19141 19.7555 5.61291 21.1666 7.36642 21.1666H9.12543C9.75203 21.1666 10.26 20.6624 10.26 20.0404V20.0404" fill="#F5921C"/>
<path d="M10.2776 20.0404V17.2292C10.2776 16.5142 10.8589 15.9332 11.5792 15.9284H14.2178C14.9415 15.9284 15.5282 16.5108 15.5282 17.2292V17.2292V20.0491C15.5281 20.6562 16.0162 21.1524 16.6276 21.1666H18.3866C20.1401 21.1666 21.5616 19.7555 21.5616 18.0149V18.0149V10.0179C21.5523 9.33318 21.2284 8.69016 20.6821 8.27187L14.6663 3.46144C13.6124 2.62385 12.1142 2.62385 11.0603 3.46144L5.07091 8.2806C4.52259 8.69719 4.19816 9.34128 4.19141 10.0267V18.0149C4.19141 19.7555 5.61291 21.1666 7.36642 21.1666H9.12543C9.75203 21.1666 10.26 20.6624 10.26 20.0404V20.0404" stroke="#F5921C" stroke-width="1.6" stroke-linecap="round" stroke-linejoin="round"/>
</svg>
