<svg width="36" height="35" viewBox="0 0 36 35" fill="none" xmlns="http://www.w3.org/2000/svg">
<ellipse cx="18.4107" cy="17.5003" rx="14.5444" ry="14.5833" fill="#F5921C"/>
<path d="M18.4103 10.3266C20.7404 10.3266 21.0164 10.3355 21.9366 10.3776C22.7874 10.4165 23.2495 10.559 23.557 10.6789C23.9643 10.8376 24.255 11.0272 24.5604 11.3334C24.8658 11.6396 25.0549 11.9311 25.2132 12.3395C25.3327 12.6478 25.4749 13.1111 25.5137 13.9642C25.5557 14.8869 25.5646 15.1636 25.5646 17.5C25.5646 19.8363 25.5557 20.1131 25.5137 21.0357C25.4749 21.8888 25.3327 22.3521 25.2132 22.6605C25.0549 23.0689 24.8658 23.3604 24.5604 23.6665C24.255 23.9727 23.9643 24.1623 23.557 24.3211C23.2495 24.4409 22.7874 24.5834 21.9366 24.6223C21.0165 24.6644 20.7406 24.6734 18.4103 24.6734C16.08 24.6734 15.804 24.6644 14.8839 24.6223C14.0331 24.5834 13.571 24.4409 13.2635 24.3211C12.8562 24.1623 12.5655 23.9727 12.2601 23.6665C11.9548 23.3604 11.7656 23.0689 11.6073 22.6605C11.4878 22.3521 11.3456 21.8888 11.3069 21.0357C11.2649 20.1131 11.256 19.8363 11.256 17.5C11.256 15.1636 11.2649 14.8869 11.3069 13.9642C11.3456 13.1111 11.4878 12.6478 11.6073 12.3395C11.7656 11.9311 11.9547 11.6396 12.2601 11.3334C12.5655 11.0272 12.8562 10.8376 13.2635 10.6789C13.571 10.559 14.0331 10.4165 14.8839 10.3776C15.8041 10.3355 16.0801 10.3266 18.4103 10.3266ZM18.4103 8.75C16.0402 8.75 15.7431 8.76007 14.8123 8.80266C13.8834 8.84513 13.249 8.99306 12.694 9.20934C12.1201 9.43296 11.6334 9.73215 11.1483 10.2186C10.6631 10.7051 10.3647 11.193 10.1417 11.7684C9.92601 12.325 9.77847 12.961 9.73611 13.8924C9.69364 14.8256 9.68359 15.1236 9.68359 17.5C9.68359 19.8763 9.69364 20.1743 9.73611 21.1076C9.77847 22.0389 9.92601 22.675 10.1417 23.2315C10.3647 23.8069 10.6631 24.2949 11.1483 24.7814C11.6334 25.2678 12.1201 25.567 12.694 25.7906C13.249 26.0069 13.8834 26.1548 14.8123 26.1973C15.7431 26.2399 16.0402 26.2499 18.4103 26.2499C20.7803 26.2499 21.0775 26.2399 22.0083 26.1973C22.9371 26.1548 23.5715 26.0069 24.1266 25.7906C24.7004 25.567 25.1871 25.2678 25.6723 24.7814C26.1574 24.2949 26.4558 23.8069 26.6788 23.2315C26.8945 22.675 27.0421 22.0389 27.0844 21.1076C27.1269 20.1743 27.1369 19.8763 27.1369 17.5C27.1369 15.1236 27.1269 14.8256 27.0844 13.8924C27.0421 12.961 26.8945 12.325 26.6788 11.7684C26.4558 11.193 26.1574 10.7051 25.6723 10.2186C25.1871 9.73215 24.7004 9.43296 24.1266 9.20934C23.5715 8.99306 22.9371 8.84513 22.0083 8.80266C21.0775 8.76007 20.7803 8.75 18.4103 8.75Z" fill="white"/>
<path d="M18.4149 13.0103C15.9399 13.0103 13.9336 15.0219 13.9336 17.5035C13.9336 19.985 15.9399 21.9967 18.4149 21.9967C20.8898 21.9967 22.8961 19.985 22.8961 17.5035C22.8961 15.0219 20.8898 13.0103 18.4149 13.0103ZM18.4149 20.4201C16.8083 20.4201 15.506 19.1143 15.506 17.5035C15.506 15.8926 16.8083 14.5868 18.4149 14.5868C20.0214 14.5868 21.3237 15.8926 21.3237 17.5035C21.3237 19.1143 20.0214 20.4201 18.4149 20.4201Z" fill="white"/>
<path d="M24.1198 12.8303C24.1198 13.4102 23.6509 13.8803 23.0726 13.8803C22.4943 13.8803 22.0254 13.4102 22.0254 12.8303C22.0254 12.2504 22.4943 11.7803 23.0726 11.7803C23.6509 11.7803 24.1198 12.2504 24.1198 12.8303Z" fill="white"/>
</svg>
