<svg width="49" height="50" viewBox="0 0 49 50" fill="none" xmlns="http://www.w3.org/2000/svg">
<path fill-rule="evenodd" clip-rule="evenodd" d="M23.9773 5.20836C13.9206 5.20836 5.76807 13.3699 5.76807 23.4376C5.76807 33.5054 13.9206 41.6669 23.9773 41.6669C34.034 41.6669 42.1866 33.5054 42.1866 23.4376C42.1866 13.3699 34.034 5.20836 23.9773 5.20836ZM0.56543 23.4376C0.56543 10.4934 11.0473 0 23.9773 0C36.9074 0 47.3892 10.4934 47.3892 23.4376C47.3892 36.3819 36.9074 46.8753 23.9773 46.8753C11.0473 46.8753 0.56543 36.3819 0.56543 23.4376Z" fill="#8D909B"/>
<path fill-rule="evenodd" clip-rule="evenodd" d="M36.2102 37.7584C37.226 36.7414 38.8731 36.7414 39.889 37.7584L47.6757 45.5544C48.6916 46.5714 48.6916 48.2202 47.6757 49.2372C46.6599 50.2542 45.0128 50.2542 43.9969 49.2372L36.2102 41.4412C35.1943 40.4242 35.1943 38.7753 36.2102 37.7584Z" fill="#8D909B"/>
</svg>
