<svg width="25" height="24" viewBox="0 0 25 24" fill="none" xmlns="http://www.w3.org/2000/svg">
<g clip-path="url(#clip0_360_16938)">
<circle cx="12.6575" cy="11.5" r="3.5" fill="#F5921C"/>
<circle cx="12.6575" cy="12.5" r="9.5" fill="#F5921C"/>
<path d="M19.4634 5.69409C17.6455 3.87618 15.2284 2.875 12.6575 2.875C10.0864 2.875 7.66947 3.87618 5.85156 5.69409C4.03366 7.51199 3.03247 9.92897 3.03247 12.5C3.03247 15.0709 4.03366 17.488 5.85156 19.3059C7.66947 21.1238 10.0864 22.125 12.6575 22.125C15.2284 22.125 17.6455 21.1238 19.4634 19.3059C21.2813 17.488 22.2825 15.0709 22.2825 12.5C22.2825 9.92897 21.2813 7.51199 19.4634 5.69409ZM7.85775 19.5077C8.26031 17.1899 10.2688 15.4802 12.6575 15.4802C15.0462 15.4802 17.0546 17.1899 17.4572 19.5077C16.0906 20.4466 14.4372 20.9971 12.6575 20.9971C10.8777 20.9971 9.22433 20.4466 7.85775 19.5077ZM9.59708 11.2919C9.59708 9.60425 10.97 8.23149 12.6575 8.23149C14.345 8.23149 15.7179 9.60439 15.7179 11.2919C15.7179 12.9794 14.345 14.3523 12.6575 14.3523C10.97 14.3523 9.59708 12.9794 9.59708 11.2919ZM18.4341 18.7253C18.1306 17.6463 17.5277 16.6673 16.6826 15.9026C16.1642 15.4334 15.5741 15.0631 14.9396 14.8021C16.0863 14.0541 16.8459 12.7601 16.8459 11.2919C16.8459 8.98242 14.9669 7.10356 12.6575 7.10356C10.348 7.10356 8.46915 8.98242 8.46915 11.2919C8.46915 12.7601 9.22874 14.0541 10.3753 14.8021C9.74101 15.0631 9.15075 15.4332 8.63232 15.9024C7.7874 16.6672 7.18437 17.6462 6.8808 18.7252C5.20873 17.1724 4.1604 14.9565 4.1604 12.5C4.1604 7.81469 7.97216 4.00293 12.6575 4.00293C17.3428 4.00293 21.1545 7.81469 21.1545 12.5C21.1545 14.9566 20.1062 17.1725 18.4341 18.7253Z" fill="white" stroke="white" stroke-width="0.4"/>
<circle cx="12.6575" cy="12.5" r="9.5" stroke="#F5921C" stroke-width="2"/>
<circle cx="12.6575" cy="12.5" r="8.5" stroke="#F5921C"/>
</g>
<defs>
<clipPath id="clip0_360_16938">
<rect width="21" height="21" fill="white" transform="translate(2.15747 2)"/>
</clipPath>
</defs>
</svg>
