<svg width="25" height="24" viewBox="0 0 25 24" fill="none" xmlns="http://www.w3.org/2000/svg">
<path fill-rule="evenodd" clip-rule="evenodd" d="M11.8936 4.66659C8.34973 4.66659 5.47689 7.53942 5.47689 11.0833C5.47689 14.6271 8.34973 17.4999 11.8936 17.4999C15.4374 17.4999 18.3102 14.6271 18.3102 11.0833C18.3102 7.53942 15.4374 4.66659 11.8936 4.66659ZM3.64355 11.0833C3.64355 6.5269 7.33721 2.83325 11.8936 2.83325C16.4499 2.83325 20.1436 6.5269 20.1436 11.0833C20.1436 15.6396 16.4499 19.3333 11.8936 19.3333C7.33721 19.3333 3.64355 15.6396 3.64355 11.0833Z" fill="#8D909B"/>
<path fill-rule="evenodd" clip-rule="evenodd" d="M16.4247 15.6144C16.7827 15.2565 17.3631 15.2565 17.7211 15.6144L21.7086 19.6019C22.0666 19.9599 22.0666 20.5403 21.7086 20.8983C21.3506 21.2563 20.7702 21.2563 20.4122 20.8983L16.4247 16.9108C16.0668 16.5528 16.0668 15.9724 16.4247 15.6144Z" fill="#8D909B"/>
</svg>
