<svg width="16" height="15" viewBox="0 0 16 15" fill="none" xmlns="http://www.w3.org/2000/svg">
<path d="M2.39258 3.75H3.63924H13.6126" stroke="#666666" stroke-linecap="round" stroke-linejoin="round"/>
<path d="M12.9906 3.99994C12.9906 3.72379 12.7668 3.49994 12.4906 3.49994C12.2145 3.49994 11.9906 3.72379 11.9906 3.99994H12.9906ZM4.01465 3.99994C4.01465 3.72379 3.79079 3.49994 3.51465 3.49994C3.23851 3.49994 3.01465 3.72379 3.01465 3.99994H4.01465ZM5.00909 3.5C5.00909 3.77614 5.23294 4 5.50909 4C5.78523 4 6.00909 3.77614 6.00909 3.5H5.00909ZM9.99575 3.5C9.99575 3.77614 10.2196 4 10.4958 4C10.7719 4 10.9958 3.77614 10.9958 3.5H9.99575ZM11.9906 3.99994V12.7499H12.9906V3.99994H11.9906ZM11.9906 12.7499C11.9906 13.1522 11.6525 13.4999 11.2084 13.4999V14.4999C12.1806 14.4999 12.9906 13.7284 12.9906 12.7499H11.9906ZM11.2084 13.4999H4.79693V14.4999H11.2084V13.4999ZM4.79693 13.4999C4.35279 13.4999 4.01465 13.1522 4.01465 12.7499H3.01465C3.01465 13.7284 3.8247 14.4999 4.79693 14.4999V13.4999ZM4.01465 12.7499V3.99994H3.01465V12.7499H4.01465ZM6.00909 3.5V2.5H5.00909V3.5H6.00909ZM6.00909 2.5C6.00909 2.32112 6.23485 2 6.75575 2V1C5.89962 1 5.00909 1.57431 5.00909 2.5H6.00909ZM6.75575 2H9.24908V1H6.75575V2ZM9.24908 2C9.76998 2 9.99575 2.32112 9.99575 2.5H10.9958C10.9958 1.57431 10.1052 1 9.24908 1V2ZM9.99575 2.5V3.5H10.9958V2.5H9.99575Z" fill="#666666"/>
<path d="M6.75586 6.875V10.625" stroke="#666666" stroke-linecap="round" stroke-linejoin="round"/>
<path d="M9.24902 6.875V10.625" stroke="#666666" stroke-linecap="round" stroke-linejoin="round"/>
</svg>
