<svg width="36" height="35" viewBox="0 0 36 35" fill="none" xmlns="http://www.w3.org/2000/svg">
<ellipse cx="18.2905" cy="17.5003" rx="14.5444" ry="14.5833" fill="#8D909B"/>
<path fill-rule="evenodd" clip-rule="evenodd" d="M21.1687 23.8395C22.065 24.2327 22.4011 23.4089 22.4011 23.4089L24.7725 11.4641C24.7538 10.6591 23.6708 11.1458 23.6708 11.1458L10.3948 16.3693C10.3948 16.3693 9.75998 16.594 9.816 16.9872C9.87202 17.3803 10.3762 17.5676 10.3762 17.5676L13.7185 18.6909C13.7185 18.6909 14.7268 22.0047 14.9322 22.6413C15.1189 23.2591 15.287 23.2778 15.287 23.2778C15.4737 23.3527 15.6418 23.2217 15.6418 23.2217L17.8077 21.2558L21.1687 23.8395ZM21.7474 13.5792C21.7474 13.5792 22.2142 13.2984 22.1956 13.5792C22.1956 13.5792 22.2703 13.6167 22.0275 13.8788C21.8034 14.1035 16.5192 18.8589 15.8096 19.4955C15.7536 19.5329 15.7163 19.5891 15.7163 19.664L15.5109 21.4239C15.4735 21.6111 15.2308 21.6298 15.1748 21.4613L14.2972 18.5781C14.2598 18.4657 14.2972 18.3347 14.4092 18.2598L21.7474 13.5792Z" fill="white"/>
</svg>
