<svg width="63" height="40" viewBox="0 0 63 40" fill="none" xmlns="http://www.w3.org/2000/svg">
<rect width="63" height="40" rx="3" fill="#00579F"/>
<path d="M28.3083 26.9194H24.4297L26.8556 13.125H30.7341L28.3083 26.9194Z" fill="white"/>
<path d="M42.3687 13.4623C41.6036 13.1832 40.3902 12.875 38.8899 12.875C35.0596 12.875 32.3624 14.7533 32.3458 17.4387C32.314 19.4199 34.277 20.5204 35.7451 21.181C37.2457 21.856 37.7558 22.2967 37.7558 22.8984C37.7405 23.8225 36.5432 24.2485 35.4265 24.2485C33.878 24.2485 33.0483 24.0289 31.7874 23.5147L31.2766 23.2943L30.7339 26.3908C31.6436 26.772 33.3196 27.1102 35.0596 27.125C39.1293 27.125 41.7788 25.2758 41.8102 22.4141C41.8257 20.8438 40.7892 19.6405 38.5545 18.6573C37.198 18.0261 36.3672 17.6006 36.3672 16.9548C36.3831 16.3677 37.0699 15.7663 38.6012 15.7663C39.8621 15.7369 40.7885 16.0156 41.4904 16.2945L41.8412 16.441L42.3687 13.4623Z" fill="white"/>
<path d="M47.5233 22.0325C47.8427 21.24 49.0718 18.173 49.0718 18.173C49.0557 18.2024 49.3906 17.3659 49.5821 16.8523L49.8532 18.0409C49.8532 18.0409 50.5877 21.3428 50.7472 22.0325C50.141 22.0325 48.2894 22.0325 47.5233 22.0325ZM52.311 13.125H49.3109C48.3857 13.125 47.6828 13.3743 47.2836 14.2695L41.5225 26.9192H45.5922C45.5922 26.9192 46.2622 25.2166 46.4062 24.8499C46.8527 24.8499 50.8117 24.8499 51.386 24.8499C51.4974 25.3342 51.8488 26.9192 51.8488 26.9192H55.44L52.311 13.125Z" fill="white"/>
<path d="M21.1931 13.125L17.3947 22.5314L16.9796 20.6237C16.2774 18.4224 14.075 16.0308 11.6172 14.8416L15.0964 26.9047H19.198L25.2945 13.125H21.1931Z" fill="white"/>
<path d="M13.8657 13.125H7.62536L7.56152 13.4037C12.4294 14.5484 15.6532 17.3077 16.9778 20.6243L15.6212 14.2845C15.3979 13.4035 14.7115 13.1541 13.8657 13.125Z" fill="#FAA61A"/>
</svg>
